<svg width="32" height="32" viewBox="0 0 32 32" fill="none" xmlns="http://www.w3.org/2000/svg">
<g clip-path="url(#clip0_267_1145)">
<path d="M6.12664 5.18828C5.9418 5.18704 5.75953 5.23157 5.59608 5.31788C5.43263 5.40419 5.29309 5.52961 5.18988 5.68296C5.08668 5.8363 5.02302 6.0128 5.0046 6.19672C4.98618 6.38064 5.01356 6.56626 5.08429 6.73703L5.51195 7.81219C5.565 7.95067 5.64502 8.07725 5.74737 8.18456C5.84972 8.29188 5.97237 8.37781 6.10819 8.43735C6.24401 8.4969 6.3903 8.52888 6.53858 8.53145C6.68685 8.53401 6.83416 8.50711 6.97196 8.45229C7.10976 8.39748 7.2353 8.31584 7.3413 8.21213C7.4473 8.10842 7.53165 7.98468 7.58946 7.84811C7.64726 7.71154 7.67738 7.56486 7.67804 7.41656C7.67871 7.26826 7.64993 7.1213 7.59336 6.98422L7.1657 5.90906C7.08526 5.69824 6.94302 5.51663 6.75761 5.38801C6.57221 5.2594 6.35228 5.18978 6.12664 5.18828Z" fill="black" style="fill:black;fill-opacity:1;"/>
<path d="M15.9826 3.66469C15.6858 3.66904 15.4028 3.79106 15.1958 4.00394C14.9889 4.21682 14.875 4.50314 14.879 4.8V5.92C14.8769 6.06841 14.9043 6.21576 14.9597 6.35349C15.015 6.49121 15.0972 6.61656 15.2014 6.72226C15.3056 6.82795 15.4298 6.91188 15.5667 6.96917C15.7036 7.02645 15.8506 7.05595 15.999 7.05595C16.1474 7.05595 16.2944 7.02645 16.4313 6.96917C16.5683 6.91188 16.6924 6.82795 16.7966 6.72226C16.9008 6.61656 16.983 6.49121 17.0384 6.35349C17.0937 6.21576 17.1211 6.06841 17.119 5.92V4.8C17.1211 4.65025 17.0931 4.50161 17.0367 4.36287C16.9803 4.22413 16.8966 4.09811 16.7907 3.99226C16.6847 3.88641 16.5586 3.80288 16.4198 3.74662C16.281 3.69035 16.1324 3.66249 15.9826 3.66469Z" fill="black" style="fill:black;fill-opacity:1;"/>
<path d="M25.8389 5.18937C25.6189 5.19734 25.4062 5.26996 25.2272 5.39815C25.0482 5.52634 24.911 5.70443 24.8327 5.91015L24.405 6.98422C24.3484 7.1213 24.3197 7.26826 24.3203 7.41656C24.321 7.56486 24.3511 7.71155 24.4089 7.84812C24.4667 7.98469 24.5511 8.10843 24.6571 8.21214C24.7631 8.31586 24.8886 8.39749 25.0264 8.45231C25.1642 8.50712 25.3115 8.53403 25.4598 8.53146C25.6081 8.5289 25.7544 8.49691 25.8902 8.43736C26.026 8.37782 26.1487 8.29189 26.251 8.18457C26.3534 8.07725 26.4334 7.95068 26.4864 7.81219L26.9141 6.73812C26.986 6.56475 27.0133 6.37608 26.9933 6.18944C26.9733 6.0028 26.9067 5.82418 26.7997 5.66999C26.6926 5.51579 26.5485 5.39097 26.3807 5.30699C26.2128 5.22301 26.0265 5.18257 25.8389 5.18937Z" fill="black" style="fill:black;fill-opacity:1;"/>
<path d="M15.999 9.28C8.14838 9.28 1.99902 12.2318 1.99902 16C1.99902 19.7682 8.14838 22.72 15.999 22.72C23.8502 22.72 30.0001 19.7682 30.0001 16C30.0001 12.2318 23.8502 9.28 15.999 9.28ZM15.999 12.08C22.9469 12.08 27.2001 14.6179 27.2001 16C27.2001 17.3821 22.9469 19.92 15.999 19.92C9.0511 19.92 4.79902 17.3821 4.79902 16C4.79902 14.6179 9.0511 12.08 15.999 12.08Z" fill="black" style="fill:black;fill-opacity:1;"/>
<path d="M25.45 23.467C25.2651 23.4656 25.0827 23.51 24.9191 23.5962C24.7555 23.6825 24.6158 23.8079 24.5125 23.9612C24.4091 24.1146 24.3454 24.2912 24.3269 24.4752C24.3084 24.6592 24.3358 24.8449 24.4066 25.0158L24.8331 26.0898C24.8874 26.2266 24.9681 26.3513 25.0706 26.4569C25.1731 26.5625 25.2953 26.6468 25.4304 26.7052C25.5655 26.7635 25.7108 26.7946 25.8579 26.7968C26.005 26.799 26.1511 26.7721 26.2879 26.7178C26.4246 26.6635 26.5494 26.5828 26.6549 26.4803C26.7605 26.3778 26.8448 26.2555 26.9031 26.1204C26.9614 25.9853 26.9925 25.8401 26.9947 25.6929C26.9968 25.5458 26.9699 25.3997 26.9156 25.263L26.4891 24.1889C26.4088 23.9779 26.2666 23.796 26.0812 23.6672C25.8958 23.5384 25.6758 23.4686 25.45 23.467Z" fill="black" style="fill:black;fill-opacity:1;"/>
<path d="M15.9826 24.9447C15.6858 24.949 15.4028 25.0711 15.1958 25.2839C14.9889 25.4968 14.875 25.7831 14.879 26.08V27.13C14.8769 27.2784 14.9043 27.4258 14.9597 27.5635C15.015 27.7012 15.0972 27.8266 15.2014 27.9323C15.3056 28.038 15.4298 28.1219 15.5667 28.1792C15.7036 28.2365 15.8506 28.2659 15.999 28.2659C16.1474 28.2659 16.2944 28.2365 16.4313 28.1792C16.5683 28.1219 16.6924 28.038 16.7966 27.9323C16.9008 27.8266 16.983 27.7012 17.0384 27.5635C17.0937 27.4258 17.1211 27.2784 17.119 27.13V26.08C17.1211 25.9302 17.0931 25.7816 17.0367 25.6429C16.9803 25.5041 16.8966 25.3781 16.7907 25.2723C16.6847 25.1664 16.5586 25.0829 16.4198 25.0266C16.281 24.9704 16.1324 24.9425 15.9826 24.9447Z" fill="black" style="fill:black;fill-opacity:1;"/>
<path d="M6.51571 23.4681C6.29591 23.4763 6.08337 23.549 5.90462 23.6772C5.72587 23.8054 5.58882 23.9833 5.51056 24.1889L5.08399 25.263C5.02573 25.4004 4.99551 25.548 4.99512 25.6973C4.99473 25.8465 5.02417 25.9944 5.08172 26.1321C5.13926 26.2698 5.22375 26.3946 5.33021 26.4992C5.43668 26.6038 5.56298 26.6861 5.70168 26.7412C5.84039 26.7963 5.98871 26.8231 6.13794 26.8201C6.28716 26.8171 6.43427 26.7843 6.57063 26.7236C6.70699 26.6629 6.82985 26.5756 6.93199 26.4668C7.03413 26.3579 7.11348 26.2298 7.1654 26.0898L7.59196 25.0158C7.66372 24.8424 7.69076 24.6537 7.6706 24.4671C7.65044 24.2806 7.58372 24.102 7.47658 23.948C7.36944 23.7939 7.2253 23.6692 7.05741 23.5854C6.88952 23.5015 6.70325 23.4612 6.51571 23.4681Z" fill="black" style="fill:black;fill-opacity:1;"/>
</g>
<defs>
<clipPath id="clip0_267_1145">
<rect width="28" height="28" fill="white" style="fill:white;fill-opacity:1;" transform="translate(2 2)"/>
</clipPath>
</defs>
</svg>
