<svg xmlns="http://www.w3.org/2000/svg" width="512" height="512" viewBox="0 0 512 512">
<g>
<path d="M 283.50 362.99 C268.78,363.91 244.88,364.08 234.00,363.35 C172.86,359.20 131.23,349.42 94.00,330.45 C76.08,321.32 66.88,314.90 55.39,303.52 C39.02,287.28 32.55,273.80 32.62,256.00 C32.67,244.79 35.33,235.11 40.92,225.89 C63.82,188.13 123.67,161.06 205.80,151.32 C226.67,148.84 285.12,148.82 306.67,151.28 C372.71,158.83 425.07,177.99 454.76,205.49 C473.07,222.44 480.99,239.66 479.73,259.78 C478.71,275.93 472.05,289.09 457.57,303.57 C424.48,336.64 361.56,358.12 283.50,362.99 ZM 231.00 318.42 C237.67,319.18 289.55,318.10 299.50,316.99 C336.66,312.86 370.35,304.12 395.67,292.03 C428.49,276.35 441.04,260.85 432.16,246.95 C419.43,227.01 376.58,207.93 324.50,199.01 C295.43,194.03 246.84,192.46 215.66,195.48 C157.22,201.15 106.41,219.11 84.84,241.73 C74.58,252.48 74.65,259.27 85.10,270.45 C106.16,292.96 160.04,312.20 215.43,316.98 C222.07,317.55 229.07,318.20 231.00,318.42 ZM 107.08 426.73 C99.92,431.55 88.50,428.73 83.28,420.85 C79.29,414.81 79.67,409.15 84.96,395.76 C89.83,383.43 91.68,380.72 97.05,377.97 C105.07,373.88 115.11,376.19 119.74,383.18 C124.01,389.64 123.85,394.74 118.97,407.27 C114.13,419.70 111.77,423.57 107.08,426.73 ZM 115.13 133.52 C108.05,138.18 99.08,137.33 92.90,131.40 C91.01,129.60 88.25,124.14 84.91,115.66 C79.27,101.34 79.03,97.93 83.21,91.17 C86.14,86.42 94.66,82.53 100.19,83.41 C105.72,84.30 109.46,86.41 112.30,90.25 C115.71,94.85 123.00,114.22 123.00,118.65 C123.00,123.92 119.41,130.70 115.13,133.52 ZM 417.22 133.46 C410.43,137.93 403.10,137.60 396.43,132.52 C388.18,126.22 387.72,118.93 394.54,102.46 C397.97,94.18 400.25,90.11 402.64,88.01 C413.69,78.31 430.58,84.81 431.76,99.21 C432.13,103.68 431.55,106.12 428.05,114.90 C422.36,129.15 421.48,130.65 417.22,133.46 ZM 420.75 427.46 C415.94,429.47 412.41,429.38 407.50,427.11 C401.61,424.39 399.60,421.66 394.52,409.49 C387.82,393.43 388.37,385.63 396.68,379.30 C403.89,373.80 416.75,375.55 421.77,382.73 C425.09,387.48 432.00,406.55 432.00,410.96 C432.00,415.37 429.41,421.42 426.32,424.21 C425.28,425.15 422.77,426.62 420.75,427.46 ZM 263.93 111.25 C257.02,114.77 248.70,112.83 243.04,106.40 C239.13,101.94 238.01,97.39 238.01,85.93 C238.00,70.37 240.78,64.08 249.23,60.55 C257.83,56.95 267.59,60.20 271.76,68.05 C273.98,72.24 274.10,73.36 273.81,87.16 L 273.50 101.82 L 270.43 105.66 C268.74,107.77 265.81,110.29 263.93,111.25 ZM 264.98 450.01 C254.47,455.64 242.38,450.26 239.12,438.50 C237.70,433.38 237.68,418.16 239.08,412.60 C241.05,404.76 247.88,399.71 256.50,399.71 C264.13,399.71 270.46,403.80 272.93,410.32 C274.58,414.65 274.30,437.40 272.55,441.28 C270.74,445.31 268.13,448.33 264.98,450.01 Z" fill="rgb(0,0,0)"/>
<path d="M 0.00 256.00 L 0.00 0.00 L 256.00 0.00 L 512.00 0.00 L 512.00 256.00 L 512.00 512.00 L 256.00 512.00 L 0.00 512.00 L 0.00 256.00 ZM 264.98 450.01 C268.13,448.33 270.74,445.31 272.55,441.28 C274.30,437.40 274.58,414.65 272.93,410.32 C270.46,403.80 264.13,399.71 256.50,399.71 C247.88,399.71 241.05,404.76 239.08,412.60 C237.68,418.16 237.70,433.38 239.12,438.50 C242.38,450.26 254.47,455.64 264.98,450.01 ZM 107.08 426.73 C111.77,423.57 114.13,419.70 118.97,407.27 C123.85,394.74 124.01,389.64 119.74,383.18 C115.11,376.19 105.07,373.88 97.05,377.97 C91.68,380.72 89.83,383.43 84.96,395.76 C79.67,409.15 79.29,414.81 83.28,420.85 C88.50,428.73 99.92,431.55 107.08,426.73 ZM 420.75 427.46 C422.77,426.62 425.28,425.15 426.32,424.21 C429.41,421.42 432.00,415.37 432.00,410.96 C432.00,406.55 425.09,387.48 421.77,382.73 C416.75,375.55 403.89,373.80 396.68,379.30 C388.37,385.63 387.82,393.43 394.52,409.49 C399.60,421.66 401.61,424.39 407.50,427.11 C412.41,429.38 415.94,429.47 420.75,427.46 ZM 283.50 362.99 C361.56,358.12 424.48,336.64 457.57,303.57 C472.05,289.09 478.71,275.93 479.73,259.78 C480.99,239.66 473.07,222.44 454.76,205.49 C425.07,177.99 372.71,158.83 306.67,151.28 C285.12,148.82 226.67,148.84 205.80,151.32 C123.67,161.06 63.82,188.13 40.92,225.89 C35.33,235.11 32.67,244.79 32.62,256.00 C32.55,273.80 39.02,287.28 55.39,303.52 C66.88,314.90 76.08,321.32 94.00,330.45 C131.23,349.42 172.86,359.20 234.00,363.35 C244.88,364.08 268.78,363.91 283.50,362.99 ZM 115.13 133.52 C119.41,130.70 123.00,123.92 123.00,118.65 C123.00,114.22 115.71,94.85 112.30,90.25 C109.46,86.41 105.72,84.30 100.19,83.41 C94.66,82.53 86.14,86.42 83.21,91.17 C79.03,97.93 79.27,101.34 84.91,115.66 C88.25,124.14 91.01,129.60 92.90,131.40 C99.08,137.33 108.05,138.18 115.13,133.52 ZM 417.22 133.46 C421.48,130.65 422.36,129.15 428.05,114.90 C431.55,106.12 432.13,103.68 431.76,99.21 C430.58,84.81 413.69,78.31 402.64,88.01 C400.25,90.11 397.97,94.18 394.54,102.46 C387.72,118.93 388.18,126.22 396.43,132.52 C403.10,137.60 410.43,137.93 417.22,133.46 ZM 263.93 111.25 C265.81,110.29 268.74,107.77 270.43,105.66 L 273.50 101.82 L 273.81 87.16 C274.10,73.36 273.98,72.24 271.76,68.05 C267.59,60.20 257.83,56.95 249.23,60.55 C240.78,64.08 238.00,70.37 238.01,85.93 C238.01,97.39 239.13,101.94 243.04,106.40 C248.70,112.83 257.02,114.77 263.93,111.25 ZM 231.00 318.42 C229.07,318.20 222.07,317.55 215.43,316.98 C160.04,312.20 106.16,292.96 85.10,270.45 C74.65,259.27 74.58,252.48 84.84,241.73 C106.41,219.11 157.22,201.15 215.66,195.48 C246.84,192.46 295.43,194.03 324.50,199.01 C376.58,207.93 419.43,227.01 432.16,246.95 C441.04,260.85 428.49,276.35 395.67,292.03 C370.35,304.12 336.66,312.86 299.50,316.99 C289.55,318.10 237.67,319.18 231.00,318.42 Z" fill="rgb(254,254,254)"/>
</g>
</svg>