<svg width="512" height="512" viewBox="0 0 512 512" fill="none" xmlns="http://www.w3.org/2000/svg">
<rect width="512" height="512" fill="#F8F4EF" style="fill:#F8F4EF;fill:color(display-p3 0.9725 0.9569 0.9373);fill-opacity:1;"/>
<path d="M127.691 115.82C125.287 115.803 122.916 116.383 120.79 117.505C118.664 118.628 116.848 120.259 115.506 122.254C114.164 124.249 113.336 126.544 113.096 128.937C112.856 131.329 113.212 133.743 114.133 135.965L119.695 149.95C120.385 151.751 121.426 153.397 122.758 154.793C124.089 156.189 125.684 157.307 127.451 158.082C129.217 158.856 131.12 159.272 133.049 159.305C134.978 159.339 136.894 158.989 138.686 158.276C140.479 157.563 142.112 156.501 143.49 155.152C144.869 153.803 145.966 152.193 146.718 150.417C147.47 148.641 147.862 146.733 147.871 144.804C147.879 142.875 147.505 140.963 146.769 139.18L141.206 125.195C140.16 122.453 138.31 120.09 135.898 118.418C133.486 116.745 130.626 115.839 127.691 115.82Z" fill="#553E28" style="fill:#553E28;fill:color(display-p3 0.3340 0.2431 0.1580);fill-opacity:1;"/>
<path d="M255.89 96.0016C252.029 96.0581 248.348 97.6453 245.656 100.414C242.965 103.183 241.482 106.908 241.535 110.769V125.337C241.508 127.268 241.864 129.184 242.584 130.976C243.304 132.767 244.373 134.398 245.728 135.773C247.084 137.147 248.699 138.239 250.48 138.984C252.261 139.729 254.173 140.113 256.103 140.113C258.034 140.113 259.946 139.729 261.727 138.984C263.508 138.239 265.123 137.147 266.478 135.773C267.834 134.398 268.903 132.767 269.623 130.976C270.342 129.184 270.699 127.268 270.672 125.337V110.769C270.698 108.821 270.334 106.888 269.601 105.083C268.867 103.278 267.779 101.639 266.401 100.262C265.023 98.8856 263.382 97.7991 261.577 97.0673C259.772 96.3354 257.838 95.973 255.89 96.0016Z" fill="#553E28" style="fill:#553E28;fill:color(display-p3 0.3340 0.2431 0.1580);fill-opacity:1;"/>
<path d="M384.095 115.834C381.234 115.937 378.466 116.882 376.138 118.549C373.81 120.217 372.026 122.533 371.007 125.209L365.444 139.18C364.708 140.963 364.334 142.875 364.342 144.804C364.351 146.733 364.743 148.641 365.494 150.417C366.246 152.194 367.344 153.803 368.722 155.152C370.101 156.501 371.734 157.563 373.526 158.276C375.319 158.989 377.235 159.339 379.164 159.306C381.093 159.272 382.995 158.856 384.762 158.082C386.529 157.307 388.124 156.189 389.455 154.793C390.787 153.398 391.828 151.751 392.518 149.95L398.08 135.979C399.016 133.724 399.37 131.27 399.11 128.842C398.85 126.414 397.984 124.091 396.592 122.085C395.2 120.08 393.326 118.456 391.142 117.364C388.958 116.271 386.535 115.745 384.095 115.834Z" fill="#553E28" style="fill:#553E28;fill:color(display-p3 0.3340 0.2431 0.1580);fill-opacity:1;"/>
<path d="M256.104 169.042C153.987 169.042 74 207.437 74 256.452C74 305.467 153.987 343.862 256.104 343.862C358.227 343.862 438.221 305.467 438.221 256.452C438.221 207.437 358.227 169.042 256.104 169.042ZM256.104 205.463C346.478 205.463 401.801 238.475 401.801 256.452C401.801 274.429 346.478 307.441 256.104 307.441C165.729 307.441 110.421 274.429 110.421 256.452C110.421 238.475 165.729 205.463 256.104 205.463Z" fill="#553E28" style="fill:#553E28;fill:color(display-p3 0.3340 0.2431 0.1580);fill-opacity:1;"/>
<path d="M379.036 353.579C376.631 353.56 374.258 354.137 372.13 355.259C370.002 356.381 368.185 358.012 366.841 360.007C365.497 362.002 364.668 364.299 364.428 366.692C364.187 369.086 364.543 371.501 365.464 373.724L371.012 387.695C371.718 389.473 372.768 391.096 374.101 392.469C375.434 393.842 377.025 394.94 378.782 395.698C380.539 396.457 382.428 396.862 384.342 396.89C386.256 396.918 388.156 396.569 389.935 395.863C391.714 395.157 393.336 394.107 394.709 392.774C396.082 391.44 397.179 389.85 397.937 388.092C398.696 386.335 399.1 384.446 399.128 382.532C399.156 380.618 398.807 378.718 398.1 376.939L392.552 362.968C391.508 360.223 389.659 357.858 387.247 356.182C384.835 354.507 381.973 353.599 379.036 353.579Z" fill="#553E28" style="fill:#553E28;fill:color(display-p3 0.3340 0.2431 0.1580);fill-opacity:1;"/>
<path d="M255.89 372.799C252.029 372.856 248.348 374.443 245.656 377.212C242.965 379.981 241.482 383.705 241.535 387.566V401.224C241.508 403.155 241.864 405.071 242.584 406.863C243.304 408.654 244.373 410.285 245.728 411.66C247.084 413.034 248.699 414.126 250.48 414.871C252.261 415.616 254.173 416 256.103 416C258.034 416 259.946 415.616 261.727 414.871C263.508 414.126 265.123 413.034 266.478 411.66C267.834 410.285 268.903 408.654 269.623 406.863C270.342 405.071 270.699 403.155 270.672 401.224V387.566C270.698 385.619 270.334 383.685 269.601 381.881C268.867 380.076 267.779 378.437 266.401 377.06C265.023 375.683 263.382 374.597 261.577 373.865C259.772 373.133 257.838 372.77 255.89 372.799Z" fill="#553E28" style="fill:#553E28;fill:color(display-p3 0.3340 0.2431 0.1580);fill-opacity:1;"/>
<path d="M132.75 353.593C129.891 353.699 127.127 354.645 124.802 356.312C122.477 357.98 120.694 360.294 119.676 362.968L114.127 376.939C113.37 378.726 112.977 380.647 112.971 382.589C112.966 384.53 113.349 386.453 114.098 388.244C114.846 390.035 115.945 391.659 117.33 393.02C118.715 394.38 120.358 395.45 122.162 396.167C123.966 396.884 125.896 397.233 127.837 397.193C129.778 397.154 131.691 396.727 133.465 395.938C135.238 395.149 136.837 394.013 138.165 392.597C139.494 391.182 140.526 389.515 141.201 387.695L146.75 373.724C147.683 371.468 148.035 369.014 147.773 366.587C147.51 364.161 146.642 361.838 145.249 359.834C143.855 357.83 141.98 356.208 139.796 355.118C137.613 354.027 135.19 353.503 132.75 353.593Z" fill="#553E28" style="fill:#553E28;fill:color(display-p3 0.3340 0.2431 0.1580);fill-opacity:1;"/>
</svg>
